<svg id="visual" viewBox="0 0 960 540" width="960" height="540" xmlns="http://www.w3.org/2000/svg" xmlns:xlink="http://www.w3.org/1999/xlink" version="1.1"><rect x="0" y="0" width="960" height="540" fill="#000"></rect><g fill="#2f87b0"><path d="M0 -109.5L24.6 -33.8L104.1 -33.8L39.8 12.9L64.4 88.6L0 41.8L-64.4 88.6L-39.8 12.9L-104.1 -33.8L-24.6 -33.8Z" transform="translate(946 65)"></path><path d="M0 -61.3L13.8 -19L58.3 -19L22.3 7.2L36.1 49.6L0 23.4L-36.1 49.6L-22.3 7.2L-58.3 -19L-13.8 -19Z" transform="translate(819 499)"></path><path d="M0 -89.7L20.1 -27.7L85.3 -27.7L32.6 10.6L52.7 72.5L0 34.2L-52.7 72.5L-32.6 10.6L-85.3 -27.7L-20.1 -27.7Z" transform="translate(281 500)"></path><path d="M0 -68.9L15.5 -21.3L65.5 -21.3L25 8.1L40.5 55.7L0 26.3L-40.5 55.7L-25 8.1L-65.5 -21.3L-15.5 -21.3Z" transform="translate(186 233)"></path><path d="M0 -69.8L15.7 -21.6L66.4 -21.6L25.4 8.2L41.1 56.5L0 26.7L-41.1 56.5L-25.4 8.2L-66.4 -21.6L-15.7 -21.6Z" transform="translate(593 360)"></path></g></svg>