<svg id="visual" viewBox="0 0 960 540" width="960" height="540" xmlns="http://www.w3.org/2000/svg" xmlns:xlink="http://www.w3.org/1999/xlink" version="1.1"><rect x="0" y="0" width="960" height="540" fill="#011120"></rect><path d="M0 66L22.8 65.5C45.7 65 91.3 64 137 60.3C182.7 56.7 228.3 50.3 274 45.8C319.7 41.3 365.3 38.7 411.2 44.3C457 50 503 64 548.8 63.3C594.7 62.7 640.3 47.3 686 44.3C731.7 41.3 777.3 50.7 823 58.5C868.7 66.3 914.3 72.7 937.2 75.8L960 79L960 0L937.2 0C914.3 0 868.7 0 823 0C777.3 0 731.7 0 686 0C640.3 0 594.7 0 548.8 0C503 0 457 0 411.2 0C365.3 0 319.7 0 274 0C228.3 0 182.7 0 137 0C91.3 0 45.7 0 22.8 0L0 0Z" fill="#000103" stroke-linecap="round" stroke-linejoin="miter"></path></svg>